# xmcd CD database file
#
# Track frame offsets:
#	150
#	6566
#	18269
#	28997
#	35436
#	39615
#	53129
#	71725
#	89634
#	100754
#	112523
#	130339
#	140548
#	148643
#	156361
#	166402
#	184792
#
# Disc length: 2555 seconds
#
# Revision: 1
# Processed by: cddbd v1.5.2PL0 Copyright (c) Steve Scherf et al.
# Submitted via: CDex 1.51
#
DISCID=ed09f911
DTITLE=Collin Raye - Live At Billy Bob's Texas
DYEAR=2004
DGENRE=Country
TTITLE0=Every Second
TTITLE1=I Can Still Feel You
TTITLE2=I Think About You
TTITLE3=I Want You Bad (And That Ain't Good)
TTITLE4=If I Were You
TTITLE5=In This Life
TTITLE6=Little Rock
TTITLE7=Love Me
TTITLE8=My Kind Of Girl
TTITLE9=Not That Different
TTITLE10=On the Verge
TTITLE11=One Boy One Girl
TTITLE12=Somebody Else's Moon
TTITLE13=Someone You Used To Know
TTITLE14=That Was A River
TTITLE15=That's My Story
TTITLE16=The Gift
EXTD=YEAR: 2004
EXTT0=
EXTT1=
EXTT2=
EXTT3=
EXTT4=
EXTT5=
EXTT6=
EXTT7=
EXTT8=
EXTT9=
EXTT10=
EXTT11=
EXTT12=
EXTT13=
EXTT14=
EXTT15=
EXTT16=
PLAYORDER=
